<?xml version="1.0" encoding="iso-8859-1"?>
<!-- Generator: Adobe Illustrator 19.1.0, SVG Export Plug-In . SVG Version: 6.00 Build 0)  -->
<svg version="1.1" id="Capa_1" xmlns="http://www.w3.org/2000/svg" xmlns:xlink="http://www.w3.org/1999/xlink" x="0px" y="0px"
	 viewBox="0 0 58.126 58.126" style="enable-background:new 0 0 58.126 58.126;" xml:space="preserve">
<g>
	<g>
		<path d="M19.384,49.261c0.391,0.391,0.902,0.586,1.414,0.586s1.023-0.195,1.414-0.586c0.781-0.781,0.781-1.988,0-2.769
			L7.251,31.594h48.875c1.104,0,2-0.896,2-2s-0.896-2-2-2H6.406L22.21,11.73c0.781-0.781,0.781-2.077,0-2.858
			s-2.047-0.796-2.828-0.015L0.586,27.646C0.211,28.021,0,28.526,0,29.057s0.211,1.037,0.586,1.412L19.384,49.261z"/>
	</g>
</g>
<g>
</g>
<g>
</g>
<g>
</g>
<g>
</g>
<g>
</g>
<g>
</g>
<g>
</g>
<g>
</g>
<g>
</g>
<g>
</g>
<g>
</g>
<g>
</g>
<g>
</g>
<g>
</g>
<g>
</g>
</svg>
