<?xml version="1.0" encoding="UTF-8" standalone="no"?>
<svg
   xmlns:dc="http://purl.org/dc/elements/1.1/"
   xmlns:cc="http://creativecommons.org/ns#"
   xmlns:rdf="http://www.w3.org/1999/02/22-rdf-syntax-ns#"
   xmlns:svg="http://www.w3.org/2000/svg"
   xmlns="http://www.w3.org/2000/svg"
   xmlns:sodipodi="http://sodipodi.sourceforge.net/DTD/sodipodi-0.dtd"
   xmlns:inkscape="http://www.inkscape.org/namespaces/inkscape"
   version="1.1"
   id="svg2"
   viewBox="0 0 339.70294 54.9375"
   height="15.504583mm"
   width="95.871719mm"
   inkscape:version="0.91 r13725"
   sodipodi:docname="logo.svg">
  <sodipodi:namedview
     pagecolor="#ffffff"
     bordercolor="#666666"
     borderopacity="1"
     objecttolerance="10"
     gridtolerance="10"
     guidetolerance="10"
     inkscape:pageopacity="0"
     inkscape:pageshadow="2"
     inkscape:window-width="889"
     inkscape:window-height="480"
     id="namedview8"
     showgrid="false"
     inkscape:zoom="0.87723703"
     inkscape:cx="169.85147"
     inkscape:cy="27.46875"
     inkscape:window-x="71"
     inkscape:window-y="34"
     inkscape:window-maximized="0"
     inkscape:current-layer="svg2" />
  <defs
     id="defs4" />
  <metadata
     id="metadata7">
    <rdf:RDF>
      <cc:Work
         rdf:about="">
        <dc:format>image/svg+xml</dc:format>
        <dc:type
           rdf:resource="http://purl.org/dc/dcmitype/StillImage" />
        <dc:title />
      </cc:Work>
    </rdf:RDF>
  </metadata>
  <g
     transform="translate(-119.27622,-412.58783)"
     id="layer1">
    <g
       style="font-style:normal;font-variant:normal;font-weight:normal;font-stretch:normal;font-size:12.5px;line-height:125%;font-family:Ubuntu;-inkscape-font-specification:'Ubuntu, Normal';text-align:start;letter-spacing:0px;word-spacing:0px;writing-mode:lr-tb;text-anchor:start;fill:#000000;fill-opacity:1;stroke:none;stroke-width:1px;stroke-linecap:butt;stroke-linejoin:miter;stroke-opacity:1"
       id="text4136">
      <path
         d="m 162.7194,412.83783 q 0.0625,0.8125 0.0625,1.4375 0,2.6875 -1.0625,4.1875 -1.0625,1.5 -3,2.3125 -1.5,0.625 -3.8125,1 -2.3125,0.375 -4.4375,0.375 l 0,30.125 q 4.125,-1.4375 6.875,-3.9375 2,-1.875 4.1875,-5.3125 l 0.4375,0.1875 q -1.0625,6.6875 -5.9375,11.1875 -4.8125,4.5 -11.625,4.5 -9.5,0 -15.8125,-5.3125 -6.25,-5.375 -6.25,-13.375 0,-5.625 3.25,-11.3125 3.5625,-6.25 9.1875,-9.3125 -1.1875,-0.25 -1.9375,-0.3125 -0.75,-0.0625 -2.25,-0.0625 -0.5,0 -0.8125,0 -2,0 -5.25,1.875 -3.25,1.8125 -4.8125,4.1875 l -0.375,0 q -0.375,-1.8125 1.3125,-4.9375 4.1875,-7.75 13.75,-7.75 2.6875,0 11.75,1.875 9.125,1.8125 10.125,1.8125 2.25,0 3.4375,-0.625 1.4375,-0.8125 2.4375,-3 l 0.5625,0.1875 z m -14,39.625 0,-30.375 -4.25,-0.9375 0,13.375 q 0,3.375 -0.625,5.75 -0.625,2.3125 -2.25,4.0625 -1.3125,1.4375 -3.125,2.9375 -1.3125,1.0625 -2.5625,2.125 1.375,0.9375 2.875,1.625 1.5,0.6875 3.1875,1.0625 0.625,0.125 1.75,0.25 1.1875,0.125 2.5625,0.125 0.8125,0 1.4375,0 0.625,0 1,0 z m -11.25,-10.5625 0,-21.8125 -0.9375,-0.25 q -3.75,2.25 -5.6875,6.8125 -1.6875,3.9375 -1.6875,8.25 0,6.0625 2.8125,10.3125 0.9375,1.375 2.8125,3.0625 0.4375,-0.375 0.6875,-0.625 0.75,-0.8125 1,-1.5625 0.3125,-0.75 0.4375,-1.25 0.5625,-1.75 0.5625,-2.9375 z"
         style="font-style:normal;font-variant:normal;font-weight:500;font-stretch:normal;font-size:62.5px;font-family:Diploma;-inkscape-font-specification:'Diploma Medium'"
         id="path4137" />
      <path
         d="m 187.44205,450.02533 q 0,2.8125 -1.25,5.6875 -1.1875,2.875 -3.5,4.8125 -2.25,2 -5.5625,3.5 -3.3125,1.5625 -7.6875,2.4375 l -0.125,-0.75 q 3.5,-1.4375 5.9375,-2.875 2.4375,-1.375 3.8125,-2.8125 1,-1.125 1.5,-2.9375 0.5625,-1.8125 0.5625,-4 l 0,-17.5 q 0,-2.875 -0.625,-3.9375 -0.3125,-0.375 -0.6875,-0.6875 -0.375,-0.375 -1.0625,-0.75 l -4.875,3.875 0,17.5625 1.875,2 -5.5,5 -4.9375,-4.625 2.375,-2.375 0,-22.1875 -3.5625,0 0,-3.4375 3.5625,0 0,-5.8125 q 0,-1.3125 -0.625,-2.4375 -0.5625,-1.1875 -2,-2.5625 l 0.25,-0.3125 q 1.25,0 2.5625,0.875 0.9375,0.625 2.0625,1.875 l 0.25,0 q 1,-2 2.75,-3.1875 1.8125,-1.1875 4.1875,-1.1875 l 0.25,0.4375 q -1.75,1.3125 -2.625,2.875 -0.875,1.5 -0.875,3.75 l 0,12.125 9.1875,-7.8125 q 0.875,0.625 1.6875,1.6875 0.4375,0.5625 1.375,2.125 0.75,1.125 1,2.25 0.3125,1.125 0.3125,2.8125 l 0,16.5 z"
         style="font-style:normal;font-variant:normal;font-weight:500;font-stretch:normal;font-size:62.5px;font-family:Diploma;-inkscape-font-specification:'Diploma Medium'"
         id="path4139" />
      <path
         d="m 211.05631,434.21283 -5.75,4.5625 q -3.0625,2.3125 -6,5.1875 l 0,7.25 4.9375,2.3125 4.5625,-3.125 1,1.1875 q -1.8125,1.3125 -2.125,1.5 -1.375,0.9375 -2.1875,1.625 l -4.8125,3.9375 q -0.6875,-0.5 -2.1875,-1.3125 -1.5,-0.8125 -2.5,-1.25 -0.9375,-0.4375 -2.75,-0.875 -0.625,-0.125 -1.75,-0.375 l -0.25,-0.6875 q 1.1875,-1.0625 1.5625,-2.0625 0.4375,-1.0625 0.4375,-3.0625 l 0,-18.625 q 1.875,-0.8125 2.8125,-1.3125 0.375,-0.1875 1.5625,-0.9375 1.25,-0.8125 1.75,-1.125 0.0625,-0.0625 3,-2.375 l 8.6875,9.5625 z m -5.5625,2.25 -6.1875,-6.9375 0,11.875 6.1875,-4.9375 z"
         style="font-style:normal;font-variant:normal;font-weight:500;font-stretch:normal;font-size:62.5px;font-family:Diploma;-inkscape-font-specification:'Diploma Medium'"
         id="path4141" />
      <path
         d="m 270.54069,413.33783 q 0,2.8125 -1.375,5.375 -1.5625,2.875 -3.5625,2.875 -2.625,0 -4.0625,-0.125 -1.375,-0.1875 -2.9375,-0.8125 l 0,5.875 9.625,0 -2.0625,6.8125 -7.375,0 0,13.5 q 0,6.1875 -6,10.9375 -4.6875,3.6875 -11.875,5.9375 -5.625,1.75 -8.75,1.75 -1.875,0 -3.5,-0.5625 -3.75,-1.3125 -4,-1.3125 -1.5,0 -2.25,0.625 -0.8125,0.9375 -1.3125,1.5 l -0.375,0 q -0.25,-0.375 -0.3125,-0.5 -0.125,-0.25 -0.125,-1.0625 0,-1.5 1.8125,-3.6875 2.1875,-2.6875 4.875,-2.6875 3.5625,0 6.625,2.0625 3.0625,2.0625 4,2.0625 1.8125,0 2.6875,-2.5625 0.6875,-2.0625 0.6875,-6.125 l 0,-20.0625 q -1.875,-0.5625 -4.5625,-0.5625 -3.1875,0 -5.0625,0.9375 -1.875,0.875 -3.25,2.6875 l -0.1875,-0.1875 q 0.5,-2.6875 1.5,-4.4375 1,-1.75 3.0625,-3.1875 1.5625,-1.125 3.8125,-1.875 2.25,-0.75 4.75,-0.75 l 0,-5.5 q 3,0 5.0625,-0.375 2.0625,-0.4375 4.6875,-1.375 2.625,-1 5.8125,-3.5 1.0625,-0.8125 2.75,-2.4375 1.4375,0.8125 2.1875,1.1875 2.5,1.25 3.5,1.25 1.3125,0 2.5625,-0.375 1.3125,-0.4375 2.5625,-1.3125 l 0.375,0 z m -18.875,34 0,-27.1875 q -0.375,0.1875 -1,0.4375 -0.5625,0.25 -1.3125,0.4375 -0.75,0.1875 -1.625,0.1875 l 0,25.125 q 0,5.4375 -3,10.6875 -1,1.6875 -3,4.125 l 0.125,0.125 q 4.625,-2.5625 6.4375,-4.5 3.375,-3.625 3.375,-9.4375 z"
         style="font-style:normal;font-variant:normal;font-weight:500;font-stretch:normal;font-size:62.5px;font-family:Diploma;-inkscape-font-specification:'Diploma Medium'"
         id="path4143" />
      <path
         d="m 286.50065,453.40033 -3.375,2.75 -3.25,2.5 q -0.6875,-0.6875 -1.6875,-1.5 -0.9375,-0.8125 -1.875,-1.625 -1.75,-1.5 -4.125,-2.5 l 0,-0.4375 q 0.8125,-0.625 1.1875,-1.125 1.25,-1.6875 1.25,-3.8125 l 0,-28 q 0,-2.25 -2.5,-4.75 l 0.1875,-0.4375 q 1.25,0.1875 2.3125,0.8125 1.125,0.625 2.375,2 l 0.375,0.125 q 1.4375,-1.625 2.25,-2.3125 1.9375,-1.5 5.1875,-1.5 l 0.125,0.3125 q -2,0.75 -2.9375,3.125 -0.875,2.3125 -0.875,4.6875 l 0,29.1875 2.8125,2.5 1.5625,-1.0625 1,1.0625 z"
         style="font-style:normal;font-variant:normal;font-weight:500;font-stretch:normal;font-size:62.5px;font-family:Diploma;-inkscape-font-specification:'Diploma Medium'"
         id="path4145" />
      <path
         d="m 307.24772,434.21283 -5.75,4.5625 q -3.0625,2.3125 -6,5.1875 l 0,7.25 4.9375,2.3125 4.5625,-3.125 1,1.1875 q -1.8125,1.3125 -2.125,1.5 -1.375,0.9375 -2.1875,1.625 l -4.8125,3.9375 q -0.6875,-0.5 -2.1875,-1.3125 -1.5,-0.8125 -2.5,-1.25 -0.9375,-0.4375 -2.75,-0.875 -0.625,-0.125 -1.75,-0.375 l -0.25,-0.6875 q 1.1875,-1.0625 1.5625,-2.0625 0.4375,-1.0625 0.4375,-3.0625 l 0,-18.625 q 1.875,-0.8125 2.8125,-1.3125 0.375,-0.1875 1.5625,-0.9375 1.25,-0.8125 1.75,-1.125 0.0625,-0.0625 3,-2.375 l 8.6875,9.5625 z m -5.5625,2.25 -6.1875,-6.9375 0,11.875 6.1875,-4.9375 z"
         style="font-style:normal;font-variant:normal;font-weight:500;font-stretch:normal;font-size:62.5px;font-family:Diploma;-inkscape-font-specification:'Diploma Medium'"
         id="path4147" />
      <path
         d="m 335.79459,452.96283 -6.1875,5.6875 q -0.6875,-0.5 -1.4375,-1.1875 -0.75,-0.6875 -1.5,-1.75 -1.5,-2 -3.0625,-5.3125 l -2.6875,-5.8125 -6.0625,14.0625 -6.375,-4.375 2.3125,-5.5625 5.125,2.6875 4.1875,-8.4375 -4.625,-8.6875 q -1.0625,-2 -1.9375,-3 -1.0625,-1.25 -2.0625,-1.25 -0.625,0 -1.6875,0.8125 -0.1875,0.125 -0.5,0.4375 l -0.8125,-1 6.5,-5.625 q 1.1875,0.5 1.625,0.75 0.9375,0.5625 1.6875,1.5625 1.25,2.375 2.5625,4.6875 l 2.4375,4.5 5.1875,-11.5 5.8125,3.875 -2.125,5.4375 -4.8125,-2.875 -3.125,6.75 4.9375,10.0625 q 1.125,2.3125 2.125,3.6875 1.0625,1.375 1.875,1.375 0.5,0 1.3125,-0.6875 0.125,-0.125 0.375,-0.375 l 0.9375,1.0625 z"
         style="font-style:normal;font-variant:normal;font-weight:500;font-stretch:normal;font-size:62.5px;font-family:Diploma;-inkscape-font-specification:'Diploma Medium'"
         id="path4149" />
      <path
         d="m 359.93327,453.08783 q -1.1875,0.25 -2.75,1 -1.25,0.5625 -2.5,1.3125 -1.125,0.5625 -2.1875,1.4375 -0.6875,0.5625 -1.9375,1.8125 -2.5,-2 -3,-2.375 -1.5,-1.125 -2.875,-1.8125 -1.375,-0.6875 -3.3125,-1.3125 -1.9375,-0.625 -3.375,-1 1.0625,-0.9375 1.5,-2 0.4375,-1.125 0.4375,-3.625 l 0,-16.8125 -3.3125,0 0,-4.1875 3.3125,0 0,-5.875 q 0,-1.8125 -0.5,-2.9375 -0.5,-1.125 -1.5,-2.125 l 0.25,-0.3125 q 1.3125,0.125 2.125,0.625 0.4375,0.25 2.125,2.125 l 0.25,0 q 1.5,-1.875 2.875,-2.75 1.8125,-1.125 4.1875,-1.125 l 0.125,0.3125 q -1.5625,1.1875 -2.5625,3.25 -0.9375,2.0625 -0.9375,4.125 l 0,11.5 9.1875,-7.6875 q 1.1875,0.8125 2.0625,1.8125 0.9375,0.9375 1.4375,2 0.5625,1.0625 0.6875,2.25 0.1875,1.125 0.1875,2.6875 l 0,19.6875 z m -6.3125,0.0625 0,-19.625 q 0,-1.125 -0.4375,-1.75 -0.375,-0.625 -0.75,-1.0625 -0.375,-0.4375 -0.9375,-0.4375 -0.8125,0 -3.0625,2 -0.6875,0.625 -2.0625,2 l 0,14.9375 7.25,3.9375 z"
         style="font-style:normal;font-variant:normal;font-weight:500;font-stretch:normal;font-size:62.5px;font-family:Diploma;-inkscape-font-specification:'Diploma Medium'"
         id="path4151" />
      <path
         d="m 386.47038,453.15033 q -1.4375,0.4375 -2.9375,1.0625 -1.0625,0.4375 -2.625,1.25 -1.8125,1.125 -2.875,1.875 -1,0.6875 -1.6875,1.3125 -2.8125,-2.25 -5.6875,-3.5625 -2.6875,-1.375 -6.375,-2.1875 1.125,-0.75 1.4375,-2.125 0.375,-1.4375 0.375,-3.9375 l 0,-16.8125 q 3.1875,-0.875 3.4375,-0.9375 0.8125,-0.3125 1.8125,-0.875 2.4375,-1.375 4.375,-3.5625 1.3125,0.9375 3,1.9375 1.75,1 2.8125,1.5625 1.125,0.5625 1.8125,0.75 0.75,0.1875 3.125,0.625 l 0,23.625 z m -6.375,-0.1875 0,-19.8125 q -1.125,-0.375 -1.875,-0.5625 -0.6875,-0.25 -1.8125,-0.8125 l -3.875,-1.75 0,20 3.875,1.5625 3.6875,1.375 z"
         style="font-style:normal;font-variant:normal;font-weight:500;font-stretch:normal;font-size:62.5px;font-family:Diploma;-inkscape-font-specification:'Diploma Medium'"
         id="path4153" />
      <path
         d="m 417.09342,452.96283 -6.1875,5.6875 q -0.6875,-0.5 -1.4375,-1.1875 -0.75,-0.6875 -1.5,-1.75 -1.5,-2 -3.0625,-5.3125 l -2.6875,-5.8125 -6.0625,14.0625 -6.375,-4.375 2.3125,-5.5625 5.125,2.6875 4.1875,-8.4375 -4.625,-8.6875 q -1.0625,-2 -1.9375,-3 -1.0625,-1.25 -2.0625,-1.25 -0.625,0 -1.6875,0.8125 -0.1875,0.125 -0.5,0.4375 l -0.8125,-1 6.5,-5.625 q 1.1875,0.5 1.625,0.75 0.9375,0.5625 1.6875,1.5625 1.25,2.375 2.5625,4.6875 l 2.4375,4.5 5.1875,-11.5 5.8125,3.875 -2.125,5.4375 -4.8125,-2.875 -3.125,6.75 4.9375,10.0625 q 1.125,2.3125 2.125,3.6875 1.0625,1.375 1.875,1.375 0.5,0 1.3125,-0.6875 0.125,-0.125 0.375,-0.375 l 0.9375,1.0625 z"
         style="font-style:normal;font-variant:normal;font-weight:500;font-stretch:normal;font-size:62.5px;font-family:Diploma;-inkscape-font-specification:'Diploma Medium'"
         id="path4155" />
      <path
         d="m 433.10709,453.40033 -3.375,2.75 -3.25,2.5 q -0.6875,-0.6875 -1.6875,-1.5 -0.9375,-0.8125 -1.875,-1.625 -1.75,-1.5 -4.125,-2.5 l 0,-0.4375 q 0.8125,-0.625 1.1875,-1.125 1.25,-1.6875 1.25,-3.8125 l 0,-28 q 0,-2.25 -2.5,-4.75 l 0.1875,-0.4375 q 1.25,0.1875 2.3125,0.8125 1.125,0.625 2.375,2 l 0.375,0.125 q 1.4375,-1.625 2.25,-2.3125 1.9375,-1.5 5.1875,-1.5 l 0.125,0.3125 q -2,0.75 -2.9375,3.125 -0.875,2.3125 -0.875,4.6875 l 0,29.1875 2.8125,2.5 1.5625,-1.0625 1,1.0625 z"
         style="font-style:normal;font-variant:normal;font-weight:500;font-stretch:normal;font-size:62.5px;font-family:Diploma;-inkscape-font-specification:'Diploma Medium'"
         id="path4157" />
      <path
         d="m 458.97916,436.21283 q 0,9.5625 -15.875,18.625 -3.8125,2.1875 -4.4375,2.625 -3.25,2.25 -3.25,4.9375 0,1.5 1.5625,2.5625 1.625,1.0625 4,1.0625 1.5,0 2.0625,-0.3125 0.5625,-0.25 1.875,-1.25 0.375,-0.3125 0.9375,-1.3125 0.375,-0.6875 1.1875,-0.6875 0.6875,0 1,0.5 0.375,0.5625 0.375,1.125 0,1.4375 -2.125,2.375 -2.125,1.0625 -5.375,1.0625 -3.25,0 -5.1875,-1.5 -1.875,-1.5 -1.875,-3.9375 0,-1.5 1.25,-3.375 0.5625,-0.875 2.6875,-3.25 0.875,-0.9375 1.125,-2.25 0.25,-1.3125 0.25,-2.6875 l 0,-17 q 0,-1.6875 -0.5,-2.375 -0.4375,-0.6875 -1.1875,-0.6875 -0.6875,0 -1.75,0.875 -0.3125,0.25 -0.9375,0.875 l -1,-1.1875 7.4375,-6.375 q 2.0625,1.125 3.25,3 1,1.8125 1,4.625 l 0,0.25 9.25,-7.875 q 4.25,4.625 4.25,11.5625 z m -6.3125,2.4375 q 0,-2.9375 -0.5625,-5 -0.5625,-2.0625 -1.9375,-3.375 l -4.6875,3.875 0,17.4375 q 3.5,-2.625 5.3125,-5.875 1.875,-3.25 1.875,-7.0625 z"
         style="font-style:normal;font-variant:normal;font-weight:500;font-stretch:normal;font-size:62.5px;font-family:Diploma;-inkscape-font-specification:'Diploma Medium'"
         id="path4159" />
    </g>
  </g>
</svg>
